<svg width="24" height="24" viewBox="0 0 24 24" fill="none" xmlns="http://www.w3.org/2000/svg">
<path d="M10.0502 20.0898C12.3133 20.0913 14.5101 19.3247 16.2798 17.9151L22.363 24L24 22.3626L17.9183 16.2762C19.8133 13.8812 20.5149 10.7527 19.8239 7.77667C19.1344 4.80065 17.1278 2.29991 14.3729 0.982487C11.6165 -0.335011 8.41178 -0.327439 5.66294 1.00512C2.91403 2.33769 0.921135 4.8489 0.247928 7.8279C-0.426478 10.8084 0.29168 13.9325 2.19872 16.3185C4.10727 18.7045 6.99654 20.0929 10.0501 20.0898L10.0502 20.0898ZM10.0502 2.31814C12.0991 2.31814 14.0636 3.13158 15.512 4.58187C16.9619 6.03064 17.7751 7.99553 17.7751 10.0451C17.7751 12.0947 16.9619 14.0596 15.512 15.5083C14.0636 16.9586 12.0992 17.7721 10.0502 17.7721C8.00121 17.7721 6.03686 16.9586 4.58848 15.5083C3.13859 14.0596 2.32537 12.0947 2.32537 10.0451C2.32537 7.99553 3.13859 6.03064 4.58848 4.58187C6.03686 3.13158 8.00121 2.31814 10.0502 2.31814Z" fill="white"/>
</svg>
